<svg width="14" height="20" viewBox="0 0 14 20" fill="none" xmlns="http://www.w3.org/2000/svg">
<g clip-path="url(#clip0_1935_1426)">
<path d="M6.99057 19.6817L1.29312 18.1L0.0234375 3.85938H13.9748L12.7038 18.0978L6.99057 19.6817Z" fill="#264DE4"/>
<path d="M11.6166 17.1987L12.7026 5.03125H7V18.4785L11.6166 17.1987Z" fill="#2965F1"/>
<path d="M2.9337 10.3085L3.09022 12.055H6.99868V10.3085H2.9337ZM2.61914 6.77344L2.7779 8.51999H6.99868V6.77344H2.61914ZM6.99868 14.8445L6.99102 14.8465L5.0459 14.3213L4.92154 12.9284H3.16826L3.41293 15.6707L6.99064 16.6638L6.99868 16.6616V14.8445Z" fill="#EBEBEB"/>
<path d="M3.30664 0H5.42195V0.884625H4.19127V1.76925H5.42206V2.65382H3.30664V0ZM5.84507 0H7.96044V0.769234H6.7297V0.92307H7.96044V2.69232H5.84512V1.88453H7.07587V1.7307H5.84502L5.84507 0ZM8.38355 0H10.4989V0.769234H9.26818V0.92307H10.4989V2.69232H8.38355V1.88453H9.6143V1.7307H8.38361L8.38355 0Z" fill="black"/>
<path d="M11.054 10.3085L11.3693 6.77344H6.9942V8.51999H9.45524L9.29632 10.3085H6.9942V12.055H9.14489L8.94211 14.3202L6.99414 14.846V16.663L10.5747 15.6707L10.6009 15.3756L11.0114 10.7775L11.054 10.3085Z" fill="white"/>
</g>
<defs>
<clipPath id="clip0_1935_1426">
<rect width="14" height="19.7422" fill="white"/>
</clipPath>
</defs>
</svg>
