<svg width="16" height="16" viewBox="0 0 16 16" fill="none" xmlns="http://www.w3.org/2000/svg">
<g clip-path="url(#clip0_1935_1421)">
<path d="M0.175781 0.179688H15.8238V15.8278H0.175781V0.179688Z" fill="#F0DB4F"/>
<path d="M14.5437 12.0906C14.4291 11.3768 13.9636 10.7771 12.5847 10.218C12.1057 9.99789 11.5717 9.84027 11.4126 9.47727C11.3561 9.26602 11.3486 9.14702 11.3843 9.01914C11.4869 8.60414 11.9823 8.47477 12.3749 8.59377C12.6278 8.67852 12.8672 8.87339 13.0116 9.18427C13.6868 8.74702 13.6854 8.74989 14.1569 8.44939C13.9843 8.18177 13.8922 8.05827 13.7792 7.94377C13.3731 7.49014 12.8197 7.25652 11.9347 7.27439L11.4737 7.33402C11.0319 7.44564 10.6109 7.67752 10.3641 7.98839C9.62331 8.82889 9.83456 10.2999 10.7359 10.9053C11.6239 11.5718 12.9284 11.7234 13.0951 12.3466C13.2572 13.1096 12.5343 13.3566 11.8158 13.2689C11.2863 13.1588 10.9918 12.8896 10.6734 12.4003C10.0874 12.7394 10.0874 12.7394 9.48494 13.0859C9.62781 13.3983 9.77794 13.5396 10.0174 13.8103C11.1509 14.96 13.9874 14.9035 14.4962 13.1633C14.5168 13.1035 14.6538 12.705 14.5437 12.0906ZM8.68306 7.36652H7.21944L7.21344 11.1505C7.21344 11.9553 7.25506 12.693 7.12419 12.9191C6.91006 13.3639 6.35519 13.3088 6.10231 13.2225C5.84494 13.096 5.71406 12.9161 5.56244 12.6619C5.52081 12.5889 5.48956 12.5324 5.47906 12.528L4.28906 13.2568C4.48694 13.6629 4.77844 14.0154 5.15181 14.2444C5.70956 14.5791 6.45919 14.6818 7.24319 14.5018C7.75344 14.3531 8.19369 14.0453 8.42419 13.5766C8.75744 12.9623 8.68594 12.2186 8.68294 11.3961C8.69044 10.0543 8.68306 8.71264 8.68306 7.36652Z" fill="#323330"/>
</g>
<defs>
<clipPath id="clip0_1935_1421">
<rect width="16" height="16" fill="white"/>
</clipPath>
</defs>
</svg>
